<?xml version="1.0" encoding="utf-8"?>
<!-- Generator: Adobe Illustrator 24.3.0, SVG Export Plug-In . SVG Version: 6.00 Build 0)  -->
<svg version="1.1" id="Calque_1" xmlns="http://www.w3.org/2000/svg" xmlns:xlink="http://www.w3.org/1999/xlink" x="0px" y="0px"
	 viewBox="0 0 358.5 366.7" style="enable-background:new 0 0 358.5 366.7;" xml:space="preserve">
<style type="text/css">
	.st0{fill-rule:evenodd;clip-rule:evenodd;fill:#F0641E;}
</style>
<g>
	<g id="Positif_2_">
		<path class="st0" d="M18.2,84.2C51.1,33.6,108.5,0,173.7,0c102,0,184.8,82.1,184.8,183.3c0,101.2-82.8,183.3-184.8,183.3
			c-2.1,0-4.2,0-6.2-0.1V241.1c3.7,6.8,9,11.7,15.9,14.7c6.8,2.9,14.2,4.4,22,4.4c8.4,0,15.9-1.6,22.5-4.9
			c6.5-3.3,12.1-7.8,16.6-13.7c4.5-5.9,7.9-12.8,10.2-20.8c2.3-8,3.5-16.8,3.5-26.5c0-8.9-1.1-17.5-3.4-25.7
			c-2.2-8.2-5.7-15.5-10.4-21.8c-4.7-6.3-10.5-11.4-17.4-15.1c-6.9-3.7-15.1-5.6-24.4-5.6c-9,0-16.4,1.5-22.2,4.6
			c-5.8,3.1-10.4,8-13.8,14.7l0-15.9h-32.9v232.9C71.7,348.8,21.4,304.3,0,246.1C12.3,256,28.9,261,49.8,261
			c22.7,0,40.3-5.3,52.6-15.9c12.4-10.6,18.6-26.4,18.6-47.2v-68.5H83.8v68.5c0,22.2-11.5,33.2-34.6,33.2c-9.8,0-17.4-3.1-22.8-9.4
			c-5.4-6.2-8.2-14.7-8.2-25.3V84.2z M194.1,154.9c-18.9,0-28.3,13.8-28.3,41.5c0,10.8,2.7,19.7,8,26.5c5.3,6.8,12.2,10.2,20.6,10.2
			c8.4,0,15.3-3.6,20.7-10.8c5.4-7.2,8.1-16.5,8.1-27.9C223.2,168,213.5,154.9,194.1,154.9z"/>
	</g>
</g>
</svg>
